<svg version="1.1" viewBox="0.0 0.0 960.0 720.0" fill="none" stroke="none" stroke-linecap="square" stroke-miterlimit="10" xmlns:xlink="http://www.w3.org/1999/xlink" xmlns="http://www.w3.org/2000/svg"><clipPath id="p.0"><path d="m0 0l960.0 0l0 720.0l-960.0 0l0 -720.0z" clip-rule="nonzero"/></clipPath><g clip-path="url(#p.0)"><path fill="#000000" fill-opacity="0.0" d="m0 0l960.0 0l0 720.0l-960.0 0z" fill-rule="evenodd"/><path fill="#000000" fill-opacity="0.0" d="m249.30708 137.61679l-1.0078735 478.67715" fill-rule="evenodd"/><path stroke="#000000" stroke-width="24.0" stroke-linejoin="round" stroke-linecap="butt" d="m249.30708 137.61679l-1.0078735 478.67715" fill-rule="evenodd"/><path fill="#000000" fill-opacity="0.0" d="m251.30183 150.58267l458.74017 -4.9763794" fill-rule="evenodd"/><path stroke="#000000" stroke-width="24.0" stroke-linejoin="round" stroke-linecap="butt" d="m251.30183 150.58267l458.74017 -4.9763794" fill-rule="evenodd"/><path fill="#000000" fill-opacity="0.0" d="m707.03674 146.59317l4.9763794 463.71652" fill-rule="evenodd"/><path stroke="#000000" stroke-width="24.0" stroke-linejoin="round" stroke-linecap="butt" d="m707.03674 146.59317l4.9763794 463.71652" fill-rule="evenodd"/><path fill="#000000" fill-opacity="0.0" d="m712.021 610.30444l-456.72443 -1.9842529" fill-rule="evenodd"/><path stroke="#000000" stroke-width="24.0" stroke-linejoin="round" stroke-linecap="butt" d="m712.021 610.30444l-456.72443 -1.9842529" fill-rule="evenodd"/><path fill="#000000" fill-opacity="0.0" d="m705.042 147.59055l36.91339 -25.921257" fill-rule="evenodd"/><path stroke="#000000" stroke-width="24.0" stroke-linejoin="round" stroke-linecap="butt" d="m705.042 147.59055l36.91339 -25.921257" fill-rule="evenodd"/><path fill="#000000" fill-opacity="0.0" d="m718.00525 603.3228l56.850403 -60.818848" fill-rule="evenodd"/><path stroke="#000000" stroke-width="24.0" stroke-linejoin="round" stroke-linecap="butt" d="m718.00525 603.3228l56.850403 -60.818848" fill-rule="evenodd"/><path fill="#000000" fill-opacity="0.0" d="m774.8478 544.48816l-2.9921265 -427.811" fill-rule="evenodd"/><path stroke="#000000" stroke-width="24.0" stroke-linejoin="round" stroke-linecap="butt" d="m774.8478 544.48816l-2.9921265 -427.811" fill-rule="evenodd"/><path fill="#000000" fill-opacity="0.0" d="m728.9764 134.6273l39.874023 -31.905518" fill-rule="evenodd"/><path stroke="#000000" stroke-width="24.0" stroke-linejoin="round" stroke-linecap="butt" d="m728.9764 134.6273l39.874023 -31.905518" fill-rule="evenodd"/><path fill="#000000" fill-opacity="0.0" d="m252.29921 134.6273l68.81889 -43.874023" fill-rule="evenodd"/><path stroke="#000000" stroke-width="24.0" stroke-linejoin="round" stroke-linecap="butt" d="m252.29921 134.6273l68.81889 -43.874023" fill-rule="evenodd"/><path fill="#000000" fill-opacity="0.0" d="m320.11023 90.74803l443.77954 -1.0078735" fill-rule="evenodd"/><path stroke="#000000" stroke-width="24.0" stroke-linejoin="round" stroke-linecap="butt" d="m320.11023 90.74803l443.77954 -1.0078735" fill-rule="evenodd"/><path fill="#000000" d="m340.0551 241.82152l0 0c0 -13.489655 10.04715 -24.425186 22.440948 -24.425186l0 0c5.951721 0 11.659637 2.573349 15.868134 7.153961c4.208496 4.5806274 6.572815 10.793259 6.572815 17.271225l0 0c0 13.48967 -10.04715 24.425186 -22.440948 24.425186l0 0c-12.393799 0 -22.440948 -10.935516 -22.440948 -24.425186z" fill-rule="evenodd"/><path stroke="#000000" stroke-width="1.0" stroke-linejoin="round" stroke-linecap="butt" d="m340.0551 241.82152l0 0c0 -13.489655 10.04715 -24.425186 22.440948 -24.425186l0 0c5.951721 0 11.659637 2.573349 15.868134 7.153961c4.208496 4.5806274 6.572815 10.793259 6.572815 17.271225l0 0c0 13.48967 -10.04715 24.425186 -22.440948 24.425186l0 0c-12.393799 0 -22.440948 -10.935516 -22.440948 -24.425186z" fill-rule="evenodd"/><path fill="#000000" d="m311.13647 251.30446l0 0c0 -25.33551 21.208313 -45.87401 47.370087 -45.87401l0 0c12.563324 0 24.612091 4.83313 33.495697 13.436188c8.883606 8.603043 13.87439 20.27127 13.87439 32.43782l0 0c0 25.335526 -21.208313 45.87401 -47.370087 45.87401l0 0c-26.161774 0 -47.370087 -20.538483 -47.370087 -45.87401z" fill-rule="evenodd"/><path stroke="#000000" stroke-width="1.0" stroke-linejoin="round" stroke-linecap="butt" d="m311.13647 251.30446l0 0c0 -25.33551 21.208313 -45.87401 47.370087 -45.87401l0 0c12.563324 0 24.612091 4.83313 33.495697 13.436188c8.883606 8.603043 13.87439 20.27127 13.87439 32.43782l0 0c0 25.335526 -21.208313 45.87401 -47.370087 45.87401l0 0c-26.161774 0 -47.370087 -20.538483 -47.370087 -45.87401z" fill-rule="evenodd"/><path fill="#000000" d="m321.1181 387.9685l0 0c0 -25.33551 21.208313 -45.874023 47.370087 -45.874023l0 0c12.563324 0 24.612091 4.8331604 33.495697 13.436188c8.883606 8.603058 13.87439 20.271301 13.87439 32.437836l0 0c0 25.33551 -21.208313 45.874023 -47.370087 45.874023l0 0c-26.161774 0 -47.370087 -20.538513 -47.370087 -45.874023z" fill-rule="evenodd"/><path stroke="#000000" stroke-width="1.0" stroke-linejoin="round" stroke-linecap="butt" d="m321.1181 387.9685l0 0c0 -25.33551 21.208313 -45.874023 47.370087 -45.874023l0 0c12.563324 0 24.612091 4.8331604 33.495697 13.436188c8.883606 8.603058 13.87439 20.271301 13.87439 32.437836l0 0c0 25.33551 -21.208313 45.874023 -47.370087 45.874023l0 0c-26.161774 0 -47.370087 -20.538513 -47.370087 -45.874023z" fill-rule="evenodd"/><path fill="#000000" d="m321.1181 513.6667l0 0c0 -25.33554 21.208313 -45.874023 47.370087 -45.874023l0 0c12.563324 0 24.612091 4.83313 33.495697 13.436188c8.883606 8.603027 13.87439 20.27127 13.87439 32.437836l0 0c0 25.33551 -21.208313 45.874023 -47.370087 45.874023l0 0c-26.161774 0 -47.370087 -20.538513 -47.370087 -45.874023z" fill-rule="evenodd"/><path stroke="#000000" stroke-width="1.0" stroke-linejoin="round" stroke-linecap="butt" d="m321.1181 513.6667l0 0c0 -25.33554 21.208313 -45.874023 47.370087 -45.874023l0 0c12.563324 0 24.612091 4.83313 33.495697 13.436188c8.883606 8.603027 13.87439 20.27127 13.87439 32.437836l0 0c0 25.33551 -21.208313 45.874023 -47.370087 45.874023l0 0c-26.161774 0 -47.370087 -20.538513 -47.370087 -45.874023z" fill-rule="evenodd"/><path fill="#000000" d="m541.49603 241.82152l0 0c0 -25.33551 21.208313 -45.87401 47.370117 -45.87401l0 0c12.563293 0 24.61206 4.833145 33.495667 13.436188c8.883667 8.603043 13.87439 20.271286 13.87439 32.43782l0 0c0 25.335526 -21.208313 45.87401 -47.370056 45.87401l0 0c-26.161804 0 -47.370117 -20.538483 -47.370117 -45.87401z" fill-rule="evenodd"/><path stroke="#000000" stroke-width="1.0" stroke-linejoin="round" stroke-linecap="butt" d="m541.49603 241.82152l0 0c0 -25.33551 21.208313 -45.87401 47.370117 -45.87401l0 0c12.563293 0 24.61206 4.833145 33.495667 13.436188c8.883667 8.603043 13.87439 20.271286 13.87439 32.43782l0 0c0 25.335526 -21.208313 45.87401 -47.370056 45.87401l0 0c-26.161804 0 -47.370117 -20.538483 -47.370117 -45.87401z" fill-rule="evenodd"/><path fill="#000000" d="m546.4869 349.53412l0 0c0 -25.33551 21.208313 -45.874023 47.370056 -45.874023l0 0c12.5633545 0 24.612122 4.8331604 33.495728 13.436188c8.883606 8.603058 13.87439 20.271301 13.87439 32.437836l0 0c0 25.33551 -21.208313 45.874023 -47.370117 45.874023l0 0c-26.161743 0 -47.370056 -20.538513 -47.370056 -45.874023z" fill-rule="evenodd"/><path stroke="#000000" stroke-width="1.0" stroke-linejoin="round" stroke-linecap="butt" d="m546.4869 349.53412l0 0c0 -25.33551 21.208313 -45.874023 47.370056 -45.874023l0 0c12.5633545 0 24.612122 4.8331604 33.495728 13.436188c8.883606 8.603058 13.87439 20.271301 13.87439 32.437836l0 0c0 25.33551 -21.208313 45.874023 -47.370117 45.874023l0 0c-26.161743 0 -47.370056 -20.538513 -47.370056 -45.874023z" fill-rule="evenodd"/><path fill="#000000" d="m546.4869 513.6667l0 0c0 -25.33554 21.208313 -45.874023 47.370056 -45.874023l0 0c12.5633545 0 24.612122 4.83313 33.495728 13.436188c8.883606 8.603027 13.87439 20.27127 13.87439 32.437836l0 0c0 25.33551 -21.208313 45.874023 -47.370117 45.874023l0 0c-26.161743 0 -47.370056 -20.538513 -47.370056 -45.874023z" fill-rule="evenodd"/><path stroke="#000000" stroke-width="1.0" stroke-linejoin="round" stroke-linecap="butt" d="m546.4869 513.6667l0 0c0 -25.33554 21.208313 -45.874023 47.370056 -45.874023l0 0c12.5633545 0 24.612122 4.83313 33.495728 13.436188c8.883606 8.603027 13.87439 20.27127 13.87439 32.437836l0 0c0 25.33551 -21.208313 45.874023 -47.370117 45.874023l0 0c-26.161743 0 -47.370056 -20.538513 -47.370056 -45.874023z" fill-rule="evenodd"/></g></svg>