<svg version="1.1" viewBox="0.0 0.0 960.0 720.0" fill="none" stroke="none" stroke-linecap="square" stroke-miterlimit="10" xmlns:xlink="http://www.w3.org/1999/xlink" xmlns="http://www.w3.org/2000/svg"><clipPath id="p.0"><path d="m0 0l960.0 0l0 720.0l-960.0 0l0 -720.0z" clip-rule="nonzero"/></clipPath><g clip-path="url(#p.0)"><path fill="#000000" fill-opacity="0.0" d="m0 0l960.0 0l0 720.0l-960.0 0z" fill-rule="evenodd"/><path fill="#000000" fill-opacity="0.0" d="m170.69817 368.74802l0 0c0 -165.58104 139.87047 -299.811 312.40942 -299.811l0 0c82.85614 0 162.31873 31.587143 220.90686 87.812614c58.588135 56.22548 91.502625 132.4836 91.502625 211.9984l0 0c0 165.58109 -139.87048 299.81107 -312.4095 299.81107l0 0c-172.53897 0 -312.40942 -134.22998 -312.40942 -299.81107z" fill-rule="evenodd"/><path stroke="#000000" stroke-width="24.0" stroke-linejoin="round" stroke-linecap="butt" d="m170.69817 368.74802l0 0c0 -165.58104 139.87047 -299.811 312.40942 -299.811l0 0c82.85614 0 162.31873 31.587143 220.90686 87.812614c58.588135 56.22548 91.502625 132.4836 91.502625 211.9984l0 0c0 165.58109 -139.87048 299.81107 -312.4095 299.81107l0 0c-172.53897 0 -312.40942 -134.22998 -312.40942 -299.81107z" fill-rule="evenodd"/><path fill="#000000" fill-opacity="0.0" d="m287.24146 374.35434l0 0c0 -111.11795 89.03543 -201.19685 198.86615 -201.19685l0 0c52.742615 0 103.32495 21.197464 140.61963 58.929184c37.294617 37.73172 58.24652 88.90695 58.24652 142.26767l0 0c0 111.11795 -89.0354 201.19687 -198.86615 201.19687l0 0c-109.83072 0 -198.86615 -90.07892 -198.86615 -201.19687z" fill-rule="evenodd"/><path stroke="#000000" stroke-width="24.0" stroke-linejoin="round" stroke-linecap="butt" d="m287.24146 374.35434l0 0c0 -111.11795 89.03543 -201.19685 198.86615 -201.19685l0 0c52.742615 0 103.32495 21.197464 140.61963 58.929184c37.294617 37.73172 58.24652 88.90695 58.24652 142.26767l0 0c0 111.11795 -89.0354 201.19687 -198.86615 201.19687l0 0c-109.83072 0 -198.86615 -90.07892 -198.86615 -201.19687z" fill-rule="evenodd"/></g></svg>