<svg version="1.1" viewBox="0.0 0.0 960.0 720.0" fill="none" stroke="none" stroke-linecap="square" stroke-miterlimit="10" xmlns:xlink="http://www.w3.org/1999/xlink" xmlns="http://www.w3.org/2000/svg"><clipPath id="p.0"><path d="m0 0l960.0 0l0 720.0l-960.0 0l0 -720.0z" clip-rule="nonzero"/></clipPath><g clip-path="url(#p.0)"><path fill="#000000" fill-opacity="0.0" d="m0 0l960.0 0l0 720.0l-960.0 0z" fill-rule="evenodd"/><path fill="#000000" fill-opacity="0.0" d="m484.7435 217.75017c47.289215 -36.777695 121.03464 -23.127213 179.45145 -9.847778c87.49811 19.890274 196.97021 63.352158 224.31757 148.81364c35.949707 112.34418 -81.35828 263.03085 -194.77429 295.44095c-63.05835 18.019775 -130.28357 18.603699 -195.86612 18.603699c-93.288055 0 -195.53922 -19.325195 -269.17847 -76.595825c-26.678574 -20.748413 -36.315933 -57.403687 -49.238846 -88.63254c-22.765 -55.012756 -31.665985 -118.53714 -21.884506 -177.2651c3.2119598 -19.284668 2.8596954 -40.991486 14.223099 -56.900238c17.155273 -24.01741 40.869827 -44.916412 67.842514 -56.900284c31.84111 -14.146881 69.19896 -8.459412 103.95274 -10.9422455c44.618103 -3.187561 92.39923 1.8606262 132.39896 21.884506" fill-rule="evenodd"/><path stroke="#000000" stroke-width="24.0" stroke-linejoin="round" stroke-linecap="butt" d="m484.7435 217.75017c47.289215 -36.777695 121.03464 -23.127213 179.45145 -9.847778c87.49811 19.890274 196.97021 63.352158 224.31757 148.81364c35.949707 112.34418 -81.35828 263.03085 -194.77429 295.44095c-63.05835 18.019775 -130.28357 18.603699 -195.86612 18.603699c-93.288055 0 -195.53922 -19.325195 -269.17847 -76.595825c-26.678574 -20.748413 -36.315933 -57.403687 -49.238846 -88.63254c-22.765 -55.012756 -31.665985 -118.53714 -21.884506 -177.2651c3.2119598 -19.284668 2.8596954 -40.991486 14.223099 -56.900238c17.155273 -24.01741 40.869827 -44.916412 67.842514 -56.900284c31.84111 -14.146881 69.19896 -8.459412 103.95274 -10.9422455c44.618103 -3.187561 92.39923 1.8606262 132.39896 21.884506" fill-rule="evenodd"/><path fill="#000000" fill-opacity="0.0" d="m482.55417 205.7139c2.2191772 -22.186432 -2.158783 -44.561584 -4.37796 -66.74803c-0.8543701 -8.54187 -2.2057495 -29.004456 5.4724426 -25.165352" fill-rule="evenodd"/><path stroke="#000000" stroke-width="24.0" stroke-linejoin="round" stroke-linecap="butt" d="m482.55417 205.7139c2.2191772 -22.186432 -2.158783 -44.561584 -4.37796 -66.74803c-0.8543701 -8.54187 -2.2057495 -29.004456 5.4724426 -25.165352" fill-rule="evenodd"/><path fill="#000000" fill-opacity="0.0" d="m492.40158 102.85914c7.2658997 -29.063614 37.091217 -55.945595 66.74802 -60.18373c33.994812 -4.8580666 69.95453 6.527115 100.66931 21.884514" fill-rule="evenodd"/><path stroke="#000000" stroke-width="24.0" stroke-linejoin="round" stroke-linecap="butt" d="m492.40158 102.85914c7.2658997 -29.063614 37.091217 -55.945595 66.74802 -60.18373c33.994812 -4.8580666 69.95453 6.527115 100.66931 21.884514" fill-rule="evenodd"/><path fill="#000000" fill-opacity="0.0" d="m662.00525 67.84252c0 28.730759 -20.641174 60.902428 -47.049866 72.21784c-26.82312 11.492996 -58.649902 5.2227783 -87.538086 1.0944977c-11.210693 -1.6020813 -27.762238 1.3757324 -32.82675 -8.753281" fill-rule="evenodd"/><path stroke="#000000" stroke-width="24.0" stroke-linejoin="round" stroke-linecap="butt" d="m662.00525 67.84252c0 28.730759 -20.641174 60.902428 -47.049866 72.21784c-26.82312 11.492996 -58.649902 5.2227783 -87.538086 1.0944977c-11.210693 -1.6020813 -27.762238 1.3757324 -32.82675 -8.753281" fill-rule="evenodd"/></g></svg>