<svg version="1.1" viewBox="0.0 0.0 960.0 720.0" fill="none" stroke="none" stroke-linecap="square" stroke-miterlimit="10" xmlns:xlink="http://www.w3.org/1999/xlink" xmlns="http://www.w3.org/2000/svg"><clipPath id="p.0"><path d="m0 0l960.0 0l0 720.0l-960.0 0l0 -720.0z" clip-rule="nonzero"/></clipPath><g clip-path="url(#p.0)"><path fill="#000000" fill-opacity="0.0" d="m0 0l960.0 0l0 720.0l-960.0 0z" fill-rule="evenodd"/><path fill="#000000" fill-opacity="0.0" d="m198.44882 37.89501l562.4252 0l0 642.2047l-562.4252 0z" fill-rule="evenodd"/><path stroke="#000000" stroke-width="24.0" stroke-linejoin="round" stroke-linecap="butt" d="m198.44882 37.89501l562.4252 0l0 642.2047l-562.4252 0z" fill-rule="evenodd"/><path fill="#000000" fill-opacity="0.0" d="m297.17322 128.64305l384.9449 -1.9842606" fill-rule="evenodd"/><path stroke="#000000" stroke-width="24.0" stroke-linejoin="round" stroke-linecap="butt" d="m297.17322 128.64305l384.9449 -1.9842606" fill-rule="evenodd"/><path fill="#000000" fill-opacity="0.0" d="m312.13385 275.2362l367.9685 -4.0" fill-rule="evenodd"/><path stroke="#000000" stroke-width="24.0" stroke-linejoin="round" stroke-linecap="butt" d="m312.13385 275.2362l367.9685 -4.0" fill-rule="evenodd"/><path fill="#000000" fill-opacity="0.0" d="m343.04724 398.8924l329.10236 -1.0078735" fill-rule="evenodd"/><path stroke="#000000" stroke-width="24.0" stroke-linejoin="round" stroke-linecap="butt" d="m343.04724 398.8924l329.10236 -1.0078735" fill-rule="evenodd"/><path fill="#000000" fill-opacity="0.0" d="m309.14172 503.60104l370.96063 -1.9842529" fill-rule="evenodd"/><path stroke="#000000" stroke-width="24.0" stroke-linejoin="round" stroke-linecap="butt" d="m309.14172 503.60104l370.96063 -1.9842529" fill-rule="evenodd"/><path fill="#000000" fill-opacity="0.0" d="m283.2126 613.2966l415.84253 1.0078735" fill-rule="evenodd"/><path stroke="#000000" stroke-width="24.0" stroke-linejoin="round" stroke-linecap="butt" d="m283.2126 613.2966l415.84253 1.0078735" fill-rule="evenodd"/></g></svg>