<svg version="1.1" viewBox="0.0 0.0 960.0 720.0" fill="none" stroke="none" stroke-linecap="square" stroke-miterlimit="10" xmlns:xlink="http://www.w3.org/1999/xlink" xmlns="http://www.w3.org/2000/svg"><clipPath id="p.0"><path d="m0 0l960.0 0l0 720.0l-960.0 0l0 -720.0z" clip-rule="nonzero"/></clipPath><g clip-path="url(#p.0)"><path fill="#000000" fill-opacity="0.0" d="m0 0l960.0 0l0 720.0l-960.0 0z" fill-rule="evenodd"/><path fill="#000000" fill-opacity="0.0" d="m917.4514 165.54068l-615.2756 502.61417" fill-rule="evenodd"/><path stroke="#000000" stroke-width="24.0" stroke-linejoin="round" stroke-linecap="butt" d="m917.4514 165.54068l-615.2756 502.61417" fill-rule="evenodd"/><path fill="#000000" fill-opacity="0.0" d="m756.89764 36.897636l-537.51184 444.7559" fill-rule="evenodd"/><path stroke="#000000" stroke-width="24.0" stroke-linejoin="round" stroke-linecap="butt" d="m756.89764 36.897636l-537.51184 444.7559" fill-rule="evenodd"/><path fill="#000000" fill-opacity="0.0" d="m312.13385 668.14435l-122.64566 -155.55902" fill-rule="evenodd"/><path stroke="#000000" stroke-width="24.0" stroke-linejoin="round" stroke-linecap="butt" d="m312.13385 668.14435l-122.64566 -155.55902" fill-rule="evenodd"/><path fill="#000000" fill-opacity="0.0" d="m233.07086 469.42258l-50.582672 38.141724" fill-rule="evenodd"/><path stroke="#000000" stroke-width="24.0" stroke-linejoin="round" stroke-linecap="butt" d="m233.07086 469.42258l-50.582672 38.141724" fill-rule="evenodd"/><path fill="#000000" fill-opacity="0.0" d="m187.11285 503.34384l-119.30708 180.78738" fill-rule="evenodd"/><path stroke="#000000" stroke-width="24.0" stroke-linejoin="round" stroke-linecap="butt" d="m187.11285 503.34384l-119.30708 180.78738" fill-rule="evenodd"/><path fill="#000000" fill-opacity="0.0" d="m68.808395 683.10236l236.34645 -12.976379" fill-rule="evenodd"/><path stroke="#000000" stroke-width="24.0" stroke-linejoin="round" stroke-linecap="butt" d="m68.808395 683.10236l236.34645 -12.976379" fill-rule="evenodd"/><path fill="#000000" fill-opacity="0.0" d="m677.1181 114.68241l126.64569 142.6142" fill-rule="evenodd"/><path stroke="#000000" stroke-width="24.0" stroke-linejoin="round" stroke-linecap="butt" d="m677.1181 114.68241l126.64569 142.6142" fill-rule="evenodd"/><path fill="#000000" fill-opacity="0.0" d="m915.45667 169.53018l-140.59839 -139.62204" fill-rule="evenodd"/><path stroke="#000000" stroke-width="24.0" stroke-linejoin="round" stroke-linecap="butt" d="m915.45667 169.53018l-140.59839 -139.62204" fill-rule="evenodd"/><path fill="#000000" fill-opacity="0.0" d="m754.9029 36.897636l14.960632 -13.952755" fill-rule="evenodd"/><path stroke="#000000" stroke-width="24.0" stroke-linejoin="round" stroke-linecap="butt" d="m754.9029 36.897636l14.960632 -13.952755" fill-rule="evenodd"/><path fill="#000000" fill-opacity="0.0" d="m102.71391 637.2152l18.960625 36.91339" fill-rule="evenodd"/><path stroke="#000000" stroke-width="24.0" stroke-linejoin="round" stroke-linecap="butt" d="m102.71391 637.2152l18.960625 36.91339" fill-rule="evenodd"/><path fill="#000000" fill-opacity="0.0" d="m89.74016 674.1286l18.960632 -25.921265" fill-rule="evenodd"/><path stroke="#000000" stroke-width="24.0" stroke-linejoin="round" stroke-linecap="butt" d="m89.74016 674.1286l18.960632 -25.921265" fill-rule="evenodd"/><path fill="#000000" fill-opacity="0.0" d="m81.77165 674.1286l34.897636 -7.968506" fill-rule="evenodd"/><path stroke="#000000" stroke-width="24.0" stroke-linejoin="round" stroke-linecap="butt" d="m81.77165 674.1286l34.897636 -7.968506" fill-rule="evenodd"/></g></svg>