<svg version="1.1" viewBox="0.0 0.0 960.0 720.0" fill="none" stroke="none" stroke-linecap="square" stroke-miterlimit="10" xmlns:xlink="http://www.w3.org/1999/xlink" xmlns="http://www.w3.org/2000/svg"><clipPath id="p.0"><path d="m0 0l960.0 0l0 720.0l-960.0 0l0 -720.0z" clip-rule="nonzero"/></clipPath><g clip-path="url(#p.0)"><path fill="#000000" fill-opacity="0.0" d="m0 0l960.0 0l0 720.0l-960.0 0z" fill-rule="evenodd"/><path fill="#000000" fill-opacity="0.0" d="m203.52493 675.1365l561.3544 0" fill-rule="evenodd"/><path stroke="#000000" stroke-width="24.0" stroke-linejoin="round" stroke-linecap="butt" d="m203.52493 675.1365l561.3544 0" fill-rule="evenodd"/><path fill="#000000" fill-opacity="0.0" d="m218.84514 675.1365l-1.102356 -428.9449" fill-rule="evenodd"/><path stroke="#000000" stroke-width="24.0" stroke-linejoin="round" stroke-linecap="butt" d="m218.84514 675.1365l-1.102356 -428.9449" fill-rule="evenodd"/><path fill="#000000" fill-opacity="0.0" d="m217.75066 246.19948l507.7165 0" fill-rule="evenodd"/><path stroke="#000000" stroke-width="24.0" stroke-linejoin="round" stroke-linecap="butt" d="m217.75066 246.19948l507.7165 0" fill-rule="evenodd"/><path fill="#000000" fill-opacity="0.0" d="m757.2047 670.76117l-5.4802856 -425.63782" fill-rule="evenodd"/><path stroke="#000000" stroke-width="24.0" stroke-linejoin="round" stroke-linecap="butt" d="m757.2047 670.76117l-5.4802856 -425.63782" fill-rule="evenodd"/><path fill="#000000" fill-opacity="0.0" d="m760.48553 241.82414l-32.818848 1.1023712" fill-rule="evenodd"/><path stroke="#000000" stroke-width="24.0" stroke-linejoin="round" stroke-linecap="butt" d="m760.48553 241.82414l-32.818848 1.1023712" fill-rule="evenodd"/><path fill="#000000" fill-opacity="0.0" d="m310.76117 327.17322l2.1732178 285.60632" fill-rule="evenodd"/><path stroke="#000000" stroke-width="24.0" stroke-linejoin="round" stroke-linecap="butt" d="m310.76117 327.17322l2.1732178 285.60632" fill-rule="evenodd"/><path fill="#000000" fill-opacity="0.0" d="m480.36484 332.64566l-1.102356 296.53543" fill-rule="evenodd"/><path stroke="#000000" stroke-width="24.0" stroke-linejoin="round" stroke-linecap="butt" d="m480.36484 332.64566l-1.102356 296.53543" fill-rule="evenodd"/><path fill="#000000" fill-opacity="0.0" d="m646.6877 343.58792l3.2755737 261.5118" fill-rule="evenodd"/><path stroke="#000000" stroke-width="24.0" stroke-linejoin="round" stroke-linecap="butt" d="m646.6877 343.58792l3.2755737 261.5118" fill-rule="evenodd"/><path fill="#000000" fill-opacity="0.0" d="m158.66142 238.54068l653.2598 -1.102356" fill-rule="evenodd"/><path stroke="#000000" stroke-width="24.0" stroke-linejoin="round" stroke-linecap="butt" d="m158.66142 238.54068l653.2598 -1.102356" fill-rule="evenodd"/><path fill="#000000" fill-opacity="0.0" d="m814.10236 238.54068l0 -75.49606" fill-rule="evenodd"/><path stroke="#000000" stroke-width="24.0" stroke-linejoin="round" stroke-linecap="butt" d="m814.10236 238.54068l0 -75.49606" fill-rule="evenodd"/><path fill="#000000" fill-opacity="0.0" d="m814.10236 163.03937l-644.5039 1.1023712" fill-rule="evenodd"/><path stroke="#000000" stroke-width="24.0" stroke-linejoin="round" stroke-linecap="butt" d="m814.10236 163.03937l-644.5039 1.1023712" fill-rule="evenodd"/><path fill="#000000" fill-opacity="0.0" d="m169.60367 164.13387l1.1023712 73.32283" fill-rule="evenodd"/><path stroke="#000000" stroke-width="24.0" stroke-linejoin="round" stroke-linecap="butt" d="m169.60367 164.13387l1.1023712 73.32283" fill-rule="evenodd"/><path fill="#000000" fill-opacity="0.0" d="m276.8399 152.0971l0 -62.362198" fill-rule="evenodd"/><path stroke="#000000" stroke-width="24.0" stroke-linejoin="round" stroke-linecap="butt" d="m276.8399 152.0971l0 -62.362198" fill-rule="evenodd"/><path fill="#000000" fill-opacity="0.0" d="m308.57217 48.14698l335.93704 1.1023636" fill-rule="evenodd"/><path stroke="#000000" stroke-width="24.0" stroke-linejoin="round" stroke-linecap="butt" d="m308.57217 48.14698l335.93704 1.1023636" fill-rule="evenodd"/><path fill="#000000" fill-opacity="0.0" d="m664.1942 76.5958l3.2755737 78.771645" fill-rule="evenodd"/><path stroke="#000000" stroke-width="24.0" stroke-linejoin="round" stroke-linecap="butt" d="m664.1942 76.5958l3.2755737 78.771645" fill-rule="evenodd"/><path fill="#000000" fill-opacity="0.0" d="m630.27295 48.14698l39.40161 40.472443" fill-rule="evenodd"/><path stroke="#000000" stroke-width="24.0" stroke-linejoin="round" stroke-linecap="butt" d="m630.27295 48.14698l39.40161 40.472443" fill-rule="evenodd"/><path fill="#000000" fill-opacity="0.0" d="m279.02625 96.291336l38.299225 -45.952755" fill-rule="evenodd"/><path stroke="#000000" stroke-width="24.0" stroke-linejoin="round" stroke-linecap="butt" d="m279.02625 96.291336l38.299225 -45.952755" fill-rule="evenodd"/></g></svg>